<?xml version="1.0" encoding="utf-8"?>
<!-- Generator: Adobe Illustrator 26.2.1, SVG Export Plug-In . SVG Version: 6.00 Build 0)  -->
<svg version="1.1" id="Laag_1" xmlns="http://www.w3.org/2000/svg" xmlns:xlink="http://www.w3.org/1999/xlink" x="0px" y="0px"
	 viewBox="0 0 141.73 141.73" style="enable-background:new 0 0 141.73 141.73;" xml:space="preserve">
<style type="text/css">
	.st0{fill:#020203;}
</style>
<path class="st0" d="M55.78,27.09c-5.68,2-8.44,8.82-6,14.8c0.8,1.94,2.97,4.25,4.93,5.2c1.45,0.72,1.98,0.84,4.07,0.84
	c2.09,0,2.63-0.12,4.1-0.84c2.22-1.13,4.32-3.53,5.2-6.01l0.64-1.82l1.39-0.09c1.31-0.09,1.42-0.03,1.69,0.72
	c1.37,3.76,3.06,5.9,5.68,7.2c1.45,0.72,1.98,0.84,4.07,0.84c2.2,0,2.6-0.09,4.21-0.95c3.59-1.91,5.63-5.38,5.63-9.6
	c0.03-3.79-1.56-7-4.4-8.96c-3.91-2.75-9.19-2.2-12.41,1.3c-1.13,1.19-2.81,4.37-2.81,5.26c0,0.26-0.51,0.38-1.61,0.38
	c-1.53,0-1.61-0.03-1.77-0.81c-0.62-2.72-2.79-5.52-5.33-6.85c-1.29-0.69-1.98-0.87-3.86-0.93C57.76,26.72,56.47,26.83,55.78,27.09z
	 M61.46,31.14c2.41,1.19,3.62,3.3,3.62,6.3c0,7.08-8.98,9.4-11.9,3.07C50.44,34.61,55.96,28.36,61.46,31.14z M83.76,30.88
	c2.57,1.16,4.1,3.56,4.1,6.45c0,7.11-8.71,9.54-11.88,3.3c-0.86-1.71-1.02-4.19-0.38-5.87C76.93,31.37,80.79,29.55,83.76,30.88z"/>
<path class="st0" d="M60.08,52.53c-2.73,0.45-4.08,1.3-6.12,3.85c-1.58,2.02-3.58,6.27-4.12,8.83l-0.23,1.25h2.23
	c1.27,0,6.05-0.31,10.63-0.76c7.9-0.67,8.9-0.67,16.75,0c4.62,0.45,9.4,0.76,10.67,0.76h2.23l-0.23-1.25
	c-0.5-2.33-2.89-7.49-4.35-9.23c-2.81-3.36-3.58-3.58-15.14-3.68C66.78,52.26,61.24,52.35,60.08,52.53z"/>
<path class="st0" d="M58.64,78.67c-1.66,0.68-1.95,1.74-1.95,6.83c0,5.15,0.32,5.94,2.69,6.69c1.59,0.51,2.23,0.34,7.33-1.77
	l4.15-1.74l4.36,1.84c5.39,2.29,7.19,2.42,8.82,0.72c0.99-1.09,0.99-1.13,0.99-5.73c0-5.22-0.35-6.31-2.16-6.93
	c-1.88-0.62-2.73-0.44-7.48,1.5l-4.53,1.88l-4.54-1.88C61.62,78.13,60.45,77.92,58.64,78.67z"/>
</svg>
